<svg width="1640" height="350" viewBox="0 0 1640 350" fill="none" xmlns="http://www.w3.org/2000/svg">
<path d="M87.808 283.072C74.496 283.072 62.464 280.512 51.712 275.392C41.1307 270.101 32.6827 262.507 26.368 252.608C20.224 242.539 17.152 230.507 17.152 216.512C17.152 202.517 20.5653 190.571 27.392 180.672C34.2187 170.603 43.1787 163.008 54.272 157.888C65.536 152.597 77.6533 149.952 90.624 149.952C100.693 149.952 109.824 151.573 118.016 154.816C126.208 157.888 132.949 161.984 138.24 167.104L120.832 190.4C115.883 186.987 111.104 184.512 106.496 182.976C102.059 181.269 97.4507 180.416 92.672 180.416C85.504 180.416 79.104 181.867 73.472 184.768C67.84 187.669 63.488 191.851 60.416 197.312C57.344 202.773 55.808 209.173 55.808 216.512C55.808 223.851 57.2587 230.251 60.16 235.712C63.232 241.173 67.4133 245.355 72.704 248.256C78.1653 251.157 84.3947 252.608 91.392 252.608C98.048 252.608 104.107 251.413 109.568 249.024C115.2 246.635 120.32 243.819 124.928 240.576L140.032 264.384C132.523 270.699 124.075 275.392 114.688 278.464C105.472 281.536 96.512 283.072 87.808 283.072ZM230.3 283.072C219.207 283.072 208.711 280.512 198.812 275.392C188.913 270.101 180.892 262.507 174.748 252.608C168.604 242.539 165.532 230.507 165.532 216.512C165.532 202.517 168.604 190.571 174.748 180.672C180.892 170.603 188.913 163.008 198.812 157.888C208.711 152.597 219.207 149.952 230.3 149.952C241.393 149.952 251.889 152.597 261.788 157.888C271.687 163.008 279.708 170.603 285.852 180.672C291.996 190.571 295.068 202.517 295.068 216.512C295.068 230.507 291.996 242.539 285.852 252.608C279.708 262.507 271.687 270.101 261.788 275.392C251.889 280.512 241.393 283.072 230.3 283.072ZM230.3 252.608C236.103 252.608 240.881 251.157 244.636 248.256C248.561 245.355 251.463 241.173 253.34 235.712C255.388 230.251 256.412 223.851 256.412 216.512C256.412 209.173 255.388 202.773 253.34 197.312C251.463 191.851 248.561 187.669 244.636 184.768C240.881 181.867 236.103 180.416 230.3 180.416C224.497 180.416 219.633 181.867 215.708 184.768C211.953 187.669 209.052 191.851 207.004 197.312C205.127 202.773 204.188 209.173 204.188 216.512C204.188 223.851 205.127 230.251 207.004 235.712C209.052 241.173 211.953 245.355 215.708 248.256C219.633 251.157 224.497 252.608 230.3 252.608ZM372.536 283.072C356.493 283.072 343.523 277.184 333.624 265.408C323.896 253.461 319.032 237.163 319.032 216.512C319.032 202.688 321.592 190.827 326.712 180.928C332.003 171.029 338.829 163.435 347.192 158.144C355.555 152.683 364.259 149.952 373.304 149.952C380.301 149.952 386.36 151.147 391.48 153.536C396.6 155.925 401.208 159.253 405.304 163.52H406.328L404.536 143.808V100.544H442.168V280H411.448L408.632 266.944H407.864C403.256 271.552 397.795 275.392 391.48 278.464C385.336 281.536 379.021 283.072 372.536 283.072ZM382.264 252.352C386.531 252.352 390.456 251.499 394.04 249.792C397.795 247.915 401.293 244.843 404.536 240.576V189.12C401.123 186.048 397.624 183.915 394.04 182.72C390.627 181.355 387.043 180.672 383.288 180.672C378.68 180.672 374.413 181.952 370.488 184.512C366.563 187.072 363.405 190.997 361.016 196.288C358.797 201.408 357.688 207.979 357.688 216C357.688 228.459 359.821 237.675 364.088 243.648C368.355 249.451 374.413 252.352 382.264 252.352ZM544.98 283.072C531.839 283.072 519.892 280.512 509.14 275.392C498.559 270.101 490.111 262.507 483.796 252.608C477.652 242.539 474.58 230.507 474.58 216.512C474.58 202.688 477.737 190.827 484.052 180.928C490.367 170.859 498.559 163.179 508.628 157.888C518.697 152.597 529.364 149.952 540.628 149.952C553.769 149.952 564.777 152.683 573.652 158.144C582.527 163.435 589.183 170.688 593.62 179.904C598.228 188.949 600.532 199.275 600.532 210.88C600.532 214.293 600.276 217.621 599.764 220.864C599.423 223.936 599.081 226.24 598.74 227.776H502.484V202.432H573.396L567.508 209.6C567.508 199.36 565.289 191.68 560.852 186.56C556.585 181.269 550.271 178.624 541.908 178.624C535.764 178.624 530.388 179.989 525.78 182.72C521.172 185.451 517.588 189.632 515.028 195.264C512.468 200.896 511.188 207.979 511.188 216.512C511.188 225.216 512.724 232.384 515.796 238.016C518.868 243.477 523.305 247.573 529.108 250.304C534.911 253.035 541.908 254.4 550.1 254.4C555.903 254.4 561.364 253.632 566.484 252.096C571.775 250.56 577.236 248.341 582.868 245.44L595.412 268.224C588.073 272.832 579.967 276.501 571.092 279.232C562.217 281.792 553.513 283.072 544.98 283.072ZM643.696 280V153.024H674.416L677.488 180.672H678.256C684.571 170.261 692.165 162.581 701.04 157.632C710.085 152.512 719.643 149.952 729.712 149.952C735.344 149.952 739.867 150.379 743.28 151.232C746.864 152.085 750.533 153.365 754.288 155.072L746.608 186.56C742.683 185.365 739.099 184.512 735.856 184C732.784 183.317 728.859 182.976 724.08 182.976C716.229 182.976 708.464 185.28 700.784 189.888C693.275 194.496 686.789 202.517 681.328 213.952V280H643.696Z" fill="white"/>
<path d="M51.712 275.392L49.9231 278.97L49.9575 278.987L49.9923 279.003L51.712 275.392ZM26.368 252.608L22.9534 254.691L22.9743 254.726L22.9958 254.759L26.368 252.608ZM27.392 180.672L30.6849 182.943L30.6939 182.93L30.7028 182.917L27.392 180.672ZM54.272 157.888L55.9482 161.52L55.9604 161.514L55.9725 161.509L54.272 157.888ZM118.016 154.816L116.544 158.535L116.578 158.549L116.612 158.561L118.016 154.816ZM138.24 167.104L141.444 169.498L143.552 166.678L141.022 164.23L138.24 167.104ZM120.832 190.4L118.561 193.693L121.731 195.879L124.036 192.794L120.832 190.4ZM106.496 182.976L105.06 186.709L105.145 186.742L105.231 186.771L106.496 182.976ZM73.472 184.768L75.3038 188.324L73.472 184.768ZM60.416 197.312L63.9023 199.273L60.416 197.312ZM60.16 235.712L56.6275 237.589L56.6501 237.631L56.6737 237.673L60.16 235.712ZM72.704 248.256L70.7807 251.763L70.8039 251.776L70.8274 251.788L72.704 248.256ZM109.568 249.024L108.006 245.342L107.985 245.35L107.965 245.359L109.568 249.024ZM124.928 240.576L128.306 238.433L126.058 234.89L122.626 237.305L124.928 240.576ZM140.032 264.384L142.606 267.445L145.283 265.194L143.41 262.241L140.032 264.384ZM114.688 278.464L113.444 274.662L113.433 274.666L113.423 274.669L114.688 278.464ZM87.808 279.072C75.0204 279.072 63.5862 276.616 53.4317 271.781L49.9923 279.003C61.3418 284.408 73.9716 287.072 87.808 287.072V279.072ZM53.5009 271.814C43.5614 266.845 35.6627 259.741 29.7403 250.457L22.9958 254.759C29.7026 265.273 38.6999 273.358 49.9231 278.97L53.5009 271.814ZM29.7826 250.525C24.0876 241.191 21.152 229.91 21.152 216.512H13.152C13.152 231.103 16.3604 243.886 22.9534 254.691L29.7826 250.525ZM21.152 216.512C21.152 203.192 24.3906 192.07 30.6849 182.943L24.0992 178.401C16.74 189.072 13.152 201.843 13.152 216.512H21.152ZM30.7028 182.917C37.1191 173.453 45.5128 166.336 55.9482 161.52L52.5958 154.256C40.8445 159.68 31.3182 167.753 24.0812 178.427L30.7028 182.917ZM55.9725 161.509C66.6819 156.478 78.2157 153.952 90.624 153.952V145.952C77.091 145.952 64.3901 148.716 52.5715 154.267L55.9725 161.509ZM90.624 153.952C100.261 153.952 108.883 155.503 116.544 158.535L119.488 151.097C110.765 147.644 101.126 145.952 90.624 145.952V153.952ZM116.612 158.561C124.385 161.476 130.629 165.305 135.458 169.978L141.022 164.23C135.27 158.663 128.031 154.3 119.421 151.071L116.612 158.561ZM135.036 164.71L117.628 188.006L124.036 192.794L141.444 169.498L135.036 164.71ZM123.103 187.107C117.914 183.529 112.799 180.861 107.761 179.181L105.231 186.771C109.409 188.163 113.851 190.445 118.561 193.693L123.103 187.107ZM107.932 179.243C103.034 177.359 97.939 176.416 92.672 176.416V184.416C96.9623 184.416 101.083 185.18 105.06 186.709L107.932 179.243ZM92.672 176.416C84.9513 176.416 77.9094 177.983 71.6402 181.212L75.3038 188.324C80.2986 185.751 86.0567 184.416 92.672 184.416V176.416ZM71.6402 181.212C65.3207 184.468 60.3898 189.2 56.9297 195.351L63.9023 199.273C66.5862 194.502 70.3593 190.871 75.3038 188.324L71.6402 181.212ZM56.9297 195.351C53.4673 201.506 51.808 208.605 51.808 216.512H59.808C59.808 209.742 61.2207 204.04 63.9023 199.273L56.9297 195.351ZM51.808 216.512C51.808 224.383 53.3667 231.451 56.6275 237.589L63.6925 233.835C61.1506 229.051 59.808 223.318 59.808 216.512H51.808ZM56.6737 237.673C60.0972 243.759 64.8088 248.488 70.7807 251.763L74.6273 244.749C70.0178 242.221 66.3668 238.587 63.6463 233.751L56.6737 237.673ZM70.8274 251.788C76.9389 255.035 83.8274 256.608 91.392 256.608V248.608C84.962 248.608 79.3918 247.279 74.5806 244.724L70.8274 251.788ZM91.392 256.608C98.5353 256.608 105.148 255.324 111.171 252.689L107.965 245.359C103.065 247.503 97.5607 248.608 91.392 248.608V256.608ZM111.13 252.706C117.001 250.216 122.372 247.266 127.23 243.847L122.626 237.305C118.268 240.371 113.399 243.053 108.006 245.342L111.13 252.706ZM121.55 242.719L136.654 266.527L143.41 262.241L128.306 238.433L121.55 242.719ZM137.458 261.323C130.343 267.305 122.347 271.749 113.444 274.662L115.932 282.266C125.802 279.035 134.702 274.092 142.606 267.445L137.458 261.323ZM113.423 274.669C104.568 277.621 96.0353 279.072 87.808 279.072V287.072C96.9887 287.072 106.376 285.451 115.953 282.259L113.423 274.669ZM198.812 275.392L196.926 278.92L196.95 278.932L196.974 278.945L198.812 275.392ZM174.748 252.608L171.333 254.691L171.341 254.704L171.349 254.717L174.748 252.608ZM174.748 180.672L178.147 182.781L178.155 182.768L178.163 182.755L174.748 180.672ZM198.812 157.888L200.65 161.441L200.674 161.428L200.698 161.416L198.812 157.888ZM261.788 157.888L259.902 161.416L259.926 161.428L259.95 161.441L261.788 157.888ZM285.852 180.672L282.437 182.755L282.445 182.768L282.453 182.781L285.852 180.672ZM285.852 252.608L289.251 254.717L289.259 254.704L289.267 254.691L285.852 252.608ZM261.788 275.392L263.626 278.945L263.65 278.932L263.674 278.92L261.788 275.392ZM244.636 248.256L242.258 245.039L242.224 245.065L242.19 245.091L244.636 248.256ZM253.34 235.712L249.595 234.308L249.575 234.359L249.557 234.412L253.34 235.712ZM253.34 197.312L249.557 198.612L249.575 198.665L249.595 198.716L253.34 197.312ZM244.636 184.768L242.19 187.933L242.224 187.959L242.258 187.985L244.636 184.768ZM215.708 184.768L213.33 181.551L213.296 181.577L213.262 181.603L215.708 184.768ZM207.004 197.312L203.259 195.908L203.239 195.959L203.221 196.012L207.004 197.312ZM207.004 235.712L203.221 237.012L203.239 237.065L203.259 237.116L207.004 235.712ZM215.708 248.256L213.262 251.421L213.296 251.447L213.33 251.473L215.708 248.256ZM230.3 279.072C219.849 279.072 209.983 276.667 200.65 271.839L196.974 278.945C207.438 284.357 218.564 287.072 230.3 287.072V279.072ZM200.698 271.864C191.443 266.918 183.934 259.823 178.147 250.499L171.349 254.717C177.85 265.19 186.383 273.285 196.926 278.92L200.698 271.864ZM178.163 250.525C172.468 241.191 169.532 229.91 169.532 216.512H161.532C161.532 231.103 164.74 243.886 171.333 254.691L178.163 250.525ZM169.532 216.512C169.532 203.112 172.468 191.93 178.147 182.781L171.349 178.563C164.74 189.212 161.532 201.923 161.532 216.512H169.532ZM178.163 182.755C183.949 173.273 191.44 166.205 200.65 161.441L196.974 154.335C186.387 159.811 177.835 167.932 171.333 178.589L178.163 182.755ZM200.698 161.416C210.023 156.431 219.872 153.952 230.3 153.952V145.952C218.541 145.952 207.398 148.763 196.926 154.36L200.698 161.416ZM230.3 153.952C240.728 153.952 250.577 156.431 259.902 161.416L263.674 154.36C253.202 148.763 242.059 145.952 230.3 145.952V153.952ZM259.95 161.441C269.16 166.205 276.651 173.273 282.437 182.755L289.267 178.589C282.765 167.932 274.213 159.811 263.626 154.335L259.95 161.441ZM282.453 182.781C288.132 191.93 291.068 203.112 291.068 216.512H299.068C299.068 201.923 295.86 189.212 289.251 178.563L282.453 182.781ZM291.068 216.512C291.068 229.91 288.132 241.191 282.437 250.525L289.267 254.691C295.86 243.886 299.068 231.103 299.068 216.512H291.068ZM282.453 250.499C276.666 259.823 269.157 266.918 259.902 271.864L263.674 278.92C274.217 273.285 282.75 265.19 289.251 254.717L282.453 250.499ZM259.95 271.839C250.617 276.667 240.751 279.072 230.3 279.072V287.072C242.036 287.072 253.162 284.357 263.626 278.945L259.95 271.839ZM230.3 256.608C236.785 256.608 242.482 254.976 247.082 251.421L242.19 245.091C239.281 247.339 235.42 248.608 230.3 248.608V256.608ZM247.014 251.473C251.703 248.007 255.031 243.096 257.123 237.012L249.557 234.412C247.894 239.25 245.42 242.703 242.258 245.039L247.014 251.473ZM257.085 237.116C259.339 231.107 260.412 224.212 260.412 216.512H252.412C252.412 223.49 251.437 229.394 249.595 234.308L257.085 237.116ZM260.412 216.512C260.412 208.812 259.339 201.917 257.085 195.908L249.595 198.716C251.437 203.63 252.412 209.534 252.412 216.512H260.412ZM257.123 196.012C255.031 189.928 251.703 185.017 247.014 181.551L242.258 187.985C245.42 190.321 247.894 193.774 249.557 198.612L257.123 196.012ZM247.082 181.603C242.482 178.048 236.785 176.416 230.3 176.416V184.416C235.42 184.416 239.281 185.685 242.19 187.933L247.082 181.603ZM230.3 176.416C223.808 176.416 218.067 178.05 213.33 181.551L218.086 187.985C221.2 185.683 225.187 184.416 230.3 184.416V176.416ZM213.262 181.603C208.797 185.053 205.508 189.909 203.259 195.908L210.749 198.716C212.596 193.792 215.109 190.286 218.154 187.933L213.262 181.603ZM203.221 196.012C201.167 201.987 200.188 208.845 200.188 216.512H208.188C208.188 209.502 209.086 203.559 210.787 198.612L203.221 196.012ZM200.188 216.512C200.188 224.179 201.167 231.037 203.221 237.012L210.787 234.412C209.086 229.465 208.188 223.522 208.188 216.512H200.188ZM203.259 237.116C205.508 243.115 208.797 247.971 213.262 251.421L218.154 245.091C215.109 242.738 212.596 239.232 210.749 234.308L203.259 237.116ZM213.33 251.473C218.067 254.973 223.808 256.608 230.3 256.608V248.608C225.187 248.608 221.2 247.341 218.086 245.039L213.33 251.473ZM333.624 265.408L330.522 267.934L330.542 267.958L330.562 267.982L333.624 265.408ZM326.712 180.928L323.184 179.042L323.172 179.066L323.159 179.09L326.712 180.928ZM347.192 158.144L349.331 161.524L349.355 161.509L349.379 161.493L347.192 158.144ZM391.48 153.536L389.788 157.161L391.48 153.536ZM405.304 163.52L402.418 166.29L403.599 167.52H405.304V163.52ZM406.328 163.52V167.52H410.708L410.312 163.158L406.328 163.52ZM404.536 143.808H400.536V143.989L400.552 144.17L404.536 143.808ZM404.536 100.544V96.544H400.536V100.544H404.536ZM442.168 100.544H446.168V96.544H442.168V100.544ZM442.168 280V284H446.168V280H442.168ZM411.448 280L407.538 280.843L408.219 284H411.448V280ZM408.632 266.944L412.542 266.101L411.861 262.944H408.632V266.944ZM407.864 266.944V262.944H406.207L405.036 264.116L407.864 266.944ZM391.48 278.464L389.73 274.867L389.711 274.877L389.691 274.886L391.48 278.464ZM394.04 249.792L395.76 253.403L395.794 253.387L395.829 253.37L394.04 249.792ZM404.536 240.576L407.721 242.996L408.536 241.923V240.576H404.536ZM404.536 189.12H408.536V187.339L407.212 186.147L404.536 189.12ZM394.04 182.72L392.554 186.434L392.664 186.478L392.775 186.515L394.04 182.72ZM370.488 184.512L368.303 181.162H368.303L370.488 184.512ZM361.016 196.288L357.371 194.642L357.358 194.67L357.346 194.698L361.016 196.288ZM364.088 243.648L360.833 245.973L360.849 245.995L360.865 246.018L364.088 243.648ZM372.536 279.072C357.616 279.072 345.788 273.663 336.686 262.834L330.562 267.982C341.257 280.705 355.37 287.072 372.536 287.072V279.072ZM336.726 262.882C327.75 251.859 323.032 236.556 323.032 216.512H315.032C315.032 237.769 320.042 255.063 330.522 267.934L336.726 262.882ZM323.032 216.512C323.032 203.177 325.501 191.976 330.265 182.766L323.159 179.09C317.683 189.677 315.032 202.199 315.032 216.512H323.032ZM330.24 182.814C335.249 173.442 341.627 166.398 349.331 161.524L345.053 154.764C336.031 160.472 328.757 168.617 323.184 179.042L330.24 182.814ZM349.379 161.493C357.162 156.411 365.115 153.952 373.304 153.952V145.952C363.402 145.952 353.948 148.955 345.005 154.795L349.379 161.493ZM373.304 153.952C379.853 153.952 385.309 155.07 389.788 157.161L393.172 149.911C387.411 147.223 380.75 145.952 373.304 145.952V153.952ZM389.788 157.161C394.44 159.332 398.648 162.363 402.418 166.29L408.19 160.75C403.768 156.144 398.76 152.519 393.172 149.911L389.788 157.161ZM405.304 167.52H406.328V159.52H405.304V167.52ZM410.312 163.158L408.52 143.446L400.552 144.17L402.344 163.882L410.312 163.158ZM408.536 143.808V100.544H400.536V143.808H408.536ZM404.536 104.544H442.168V96.544H404.536V104.544ZM438.168 100.544V280H446.168V100.544H438.168ZM442.168 276H411.448V284H442.168V276ZM415.358 279.157L412.542 266.101L404.722 267.787L407.538 280.843L415.358 279.157ZM408.632 262.944H407.864V270.944H408.632V262.944ZM405.036 264.116C400.765 268.386 395.676 271.974 389.73 274.867L393.23 282.061C399.913 278.81 405.747 274.718 410.692 269.772L405.036 264.116ZM389.691 274.886C384.069 277.697 378.364 279.072 372.536 279.072V287.072C379.679 287.072 386.603 285.375 393.269 282.042L389.691 274.886ZM382.264 256.352C387.08 256.352 391.599 255.385 395.76 253.403L392.32 246.181C389.313 247.613 385.981 248.352 382.264 248.352V256.352ZM395.829 253.37C400.261 251.154 404.207 247.62 407.721 242.996L401.351 238.156C398.38 242.065 395.328 244.676 392.251 246.214L395.829 253.37ZM408.536 240.576V189.12H400.536V240.576H408.536ZM407.212 186.147C403.476 182.784 399.51 180.327 395.305 178.925L392.775 186.515C395.738 187.502 398.77 189.312 401.86 192.093L407.212 186.147ZM395.526 179.006C391.63 177.448 387.54 176.672 383.288 176.672V184.672C386.545 184.672 389.624 185.262 392.554 186.434L395.526 179.006ZM383.288 176.672C377.89 176.672 372.866 178.185 368.303 181.162L372.673 187.862C375.96 185.719 379.47 184.672 383.288 184.672V176.672ZM368.303 181.162C363.601 184.228 359.999 188.821 357.371 194.642L364.661 197.934C366.812 193.173 369.524 189.916 372.673 187.862L368.303 181.162ZM357.346 194.698C354.836 200.489 353.688 207.652 353.688 216H361.688C361.688 208.305 362.758 202.327 364.686 197.878L357.346 194.698ZM353.688 216C353.688 228.77 355.848 238.994 360.833 245.973L367.343 241.323C363.795 236.356 361.688 228.147 361.688 216H353.688ZM360.865 246.018C365.961 252.948 373.274 256.352 382.264 256.352V248.352C375.553 248.352 370.748 245.953 367.311 241.278L360.865 246.018ZM509.14 275.392L507.351 278.97L507.386 278.987L507.42 279.003L509.14 275.392ZM483.796 252.608L480.381 254.691L480.402 254.726L480.424 254.759L483.796 252.608ZM484.052 180.928L487.424 183.079L487.433 183.066L487.441 183.053L484.052 180.928ZM508.628 157.888L506.767 154.347V154.347L508.628 157.888ZM573.652 158.144L571.556 161.551L571.58 161.565L571.604 161.58L573.652 158.144ZM593.62 179.904L590.016 181.639L590.035 181.68L590.056 181.72L593.62 179.904ZM599.764 220.864L595.813 220.24L595.799 220.331L595.788 220.422L599.764 220.864ZM598.74 227.776V231.776H601.949L602.645 228.644L598.74 227.776ZM502.484 227.776H498.484V231.776H502.484V227.776ZM502.484 202.432V198.432H498.484V202.432H502.484ZM573.396 202.432L576.487 204.971L581.858 198.432H573.396V202.432ZM567.508 209.6H563.508V220.771L570.599 212.139L567.508 209.6ZM560.852 186.56L557.738 189.071L557.783 189.126L557.829 189.18L560.852 186.56ZM525.78 182.72L527.819 186.161L525.78 182.72ZM515.028 195.264L511.387 193.609L515.028 195.264ZM515.796 238.016L512.284 239.931L512.297 239.954L512.31 239.977L515.796 238.016ZM529.108 250.304L530.811 246.685L529.108 250.304ZM566.484 252.096L565.369 248.255L565.352 248.26L565.335 248.265L566.484 252.096ZM582.868 245.44L586.372 243.511L584.495 240.102L581.036 241.884L582.868 245.44ZM595.412 268.224L597.539 271.612L600.738 269.603L598.916 266.295L595.412 268.224ZM571.092 279.232L572.201 283.075L572.235 283.066L572.268 283.055L571.092 279.232ZM544.98 279.072C532.371 279.072 521.021 276.619 510.86 271.781L507.42 279.003C518.763 284.405 531.306 287.072 544.98 287.072V279.072ZM510.929 271.814C500.989 266.845 493.091 259.741 487.168 250.457L480.424 254.759C487.131 265.273 496.128 273.358 507.351 278.97L510.929 271.814ZM487.211 250.525C481.516 241.191 478.58 229.91 478.58 216.512H470.58C470.58 231.103 473.788 243.886 480.381 254.691L487.211 250.525ZM478.58 216.512C478.58 203.313 481.588 192.229 487.424 183.079L480.68 178.777C473.887 189.425 470.58 202.063 470.58 216.512H478.58ZM487.441 183.053C493.398 173.554 501.073 166.376 510.489 161.429L506.767 154.347C496.044 159.981 487.336 168.163 480.663 178.803L487.441 183.053ZM510.489 161.429C519.99 156.437 530.019 153.952 540.628 153.952V145.952C528.709 145.952 517.405 148.758 506.767 154.347L510.489 161.429ZM540.628 153.952C553.221 153.952 563.457 156.567 571.556 161.551L575.748 154.737C566.098 148.799 554.318 145.952 540.628 145.952V153.952ZM571.604 161.58C579.811 166.473 585.923 173.138 590.016 181.639L597.224 178.169C592.443 168.238 585.242 160.396 575.7 154.708L571.604 161.58ZM590.056 181.72C594.339 190.127 596.532 199.815 596.532 210.88H604.532C604.532 198.734 602.117 187.772 597.184 178.088L590.056 181.72ZM596.532 210.88C596.532 214.093 596.291 217.212 595.813 220.24L603.715 221.488C604.261 218.031 604.532 214.494 604.532 210.88H596.532ZM595.788 220.422C595.451 223.46 595.128 225.59 594.835 226.908L602.645 228.644C603.034 226.89 603.394 224.412 603.74 221.306L595.788 220.422ZM598.74 223.776H502.484V231.776H598.74V223.776ZM506.484 227.776V202.432H498.484V227.776H506.484ZM502.484 206.432H573.396V198.432H502.484V206.432ZM570.305 199.893L564.417 207.061L570.599 212.139L576.487 204.971L570.305 199.893ZM571.508 209.6C571.508 198.873 569.196 190.08 563.875 183.94L557.829 189.18C561.383 193.28 563.508 199.847 563.508 209.6H571.508ZM563.966 184.049C558.766 177.601 551.174 174.624 541.908 174.624V182.624C549.368 182.624 554.405 184.937 557.738 189.071L563.966 184.049ZM541.908 174.624C535.154 174.624 529.052 176.131 523.741 179.279L527.819 186.161C531.724 183.847 536.374 182.624 541.908 182.624V174.624ZM523.741 179.279C518.324 182.489 514.231 187.351 511.387 193.609L518.669 196.919C520.945 191.913 524.02 188.412 527.819 186.161L523.741 179.279ZM511.387 193.609C508.519 199.918 507.188 207.611 507.188 216.512H515.188C515.188 208.346 516.417 201.874 518.669 196.919L511.387 193.609ZM507.188 216.512C507.188 225.657 508.798 233.54 512.284 239.931L519.308 236.101C516.65 231.228 515.188 224.775 515.188 216.512H507.188ZM512.31 239.977C515.799 246.181 520.869 250.847 527.405 253.923L530.811 246.685C525.742 244.299 521.937 240.774 519.282 236.055L512.31 239.977ZM527.405 253.923C533.867 256.964 541.477 258.4 550.1 258.4V250.4C542.339 250.4 535.955 249.105 530.811 246.685L527.405 253.923ZM550.1 258.4C556.259 258.4 562.11 257.584 567.633 255.927L565.335 248.265C560.618 249.68 555.547 250.4 550.1 250.4V258.4ZM567.599 255.937C573.171 254.32 578.872 251.998 584.7 248.996L581.036 241.884C575.6 244.685 570.378 246.8 565.369 248.255L567.599 255.937ZM579.364 247.369L591.908 270.153L598.916 266.295L586.372 243.511L579.364 247.369ZM593.285 264.836C586.263 269.245 578.48 272.774 569.916 275.409L572.268 283.055C581.454 280.229 589.884 276.419 597.539 271.612L593.285 264.836ZM569.983 275.389C561.44 277.853 553.109 279.072 544.98 279.072V287.072C553.918 287.072 562.995 285.731 572.201 283.075L569.983 275.389ZM643.696 280H639.696V284H643.696V280ZM643.696 153.024V149.024H639.696V153.024H643.696ZM674.416 153.024L678.392 152.582L677.996 149.024H674.416V153.024ZM677.488 180.672L673.512 181.114L673.908 184.672H677.488V180.672ZM678.256 180.672V184.672H680.508L681.676 182.746L678.256 180.672ZM701.04 157.632L702.988 161.125L702.999 161.119L703.01 161.113L701.04 157.632ZM743.28 151.232L742.31 155.113L742.332 155.118L742.354 155.123L743.28 151.232ZM754.288 155.072L758.174 156.02L758.959 152.801L755.943 151.431L754.288 155.072ZM746.608 186.56L745.443 190.387L749.491 191.619L750.494 187.508L746.608 186.56ZM735.856 184L734.988 187.905L735.109 187.932L735.232 187.951L735.856 184ZM700.784 189.888L698.726 186.458L698.709 186.468L698.692 186.479L700.784 189.888ZM681.328 213.952L677.719 212.228L677.328 213.046V213.952H681.328ZM681.328 280V284H685.328V280H681.328ZM647.696 280V153.024H639.696V280H647.696ZM643.696 157.024H674.416V149.024H643.696V157.024ZM670.44 153.466L673.512 181.114L681.464 180.23L678.392 152.582L670.44 153.466ZM677.488 184.672H678.256V176.672H677.488V184.672ZM681.676 182.746C687.703 172.811 694.828 165.676 702.988 161.125L699.092 154.139C689.502 159.487 681.439 167.712 674.836 178.598L681.676 182.746ZM703.01 161.113C711.475 156.322 720.356 153.952 729.712 153.952V145.952C718.929 145.952 708.696 148.702 699.07 154.151L703.01 161.113ZM729.712 153.952C735.187 153.952 739.345 154.371 742.31 155.113L744.25 147.351C740.388 146.386 735.501 145.952 729.712 145.952V153.952ZM742.354 155.123C745.66 155.91 749.085 157.101 752.633 158.713L755.943 151.431C751.982 149.63 748.068 148.26 744.206 147.341L742.354 155.123ZM750.402 154.124L742.722 185.612L750.494 187.508L758.174 156.02L750.402 154.124ZM747.773 182.733C743.712 181.497 739.944 180.596 736.48 180.049L735.232 187.951C738.253 188.428 741.654 189.233 745.443 190.387L747.773 182.733ZM736.724 180.095C733.261 179.326 729.017 178.976 724.08 178.976V186.976C728.701 186.976 732.307 187.309 734.988 187.905L736.724 180.095ZM724.08 178.976C715.407 178.976 706.938 181.531 698.726 186.458L702.842 193.318C709.99 189.029 717.052 186.976 724.08 186.976V178.976ZM698.692 186.479C690.296 191.631 683.374 200.387 677.719 212.228L684.937 215.676C690.205 204.647 696.253 197.361 702.876 193.297L698.692 186.479ZM677.328 213.952V280H685.328V213.952H677.328ZM681.328 276H643.696V284H681.328V276Z" fill="#120028"/>
<path d="M1027.17 280V182.464H975.968V153.024H1064.8V280H1027.17ZM1044.32 133.056C1037.15 133.056 1031.18 131.008 1026.4 126.912C1021.62 122.645 1019.23 117.099 1019.23 110.272C1019.23 103.275 1021.62 97.6427 1026.4 93.376C1031.18 88.9387 1037.15 86.72 1044.32 86.72C1051.66 86.72 1057.63 88.9387 1062.24 93.376C1067.02 97.6427 1069.41 103.275 1069.41 110.272C1069.41 117.099 1067.02 122.645 1062.24 126.912C1057.63 131.008 1051.66 133.056 1044.32 133.056ZM1197.31 283.072C1184 283.072 1171.96 280.512 1161.21 275.392C1150.63 270.101 1142.18 262.507 1135.87 252.608C1129.72 242.539 1126.65 230.507 1126.65 216.512C1126.65 202.517 1130.07 190.571 1136.89 180.672C1143.72 170.603 1152.68 163.008 1163.77 157.888C1175.04 152.597 1187.15 149.952 1200.12 149.952C1210.19 149.952 1219.32 151.573 1227.52 154.816C1235.71 157.888 1242.45 161.984 1247.74 167.104L1230.33 190.4C1225.38 186.987 1220.6 184.512 1216 182.976C1211.56 181.269 1206.95 180.416 1202.17 180.416C1195 180.416 1188.6 181.867 1182.97 184.768C1177.34 187.669 1172.99 191.851 1169.92 197.312C1166.84 202.773 1165.31 209.173 1165.31 216.512C1165.31 223.851 1166.76 230.251 1169.66 235.712C1172.73 241.173 1176.91 245.355 1182.2 248.256C1187.67 251.157 1193.89 252.608 1200.89 252.608C1207.55 252.608 1213.61 251.413 1219.07 249.024C1224.7 246.635 1229.82 243.819 1234.43 240.576L1249.53 264.384C1242.02 270.699 1233.57 275.392 1224.19 278.464C1214.97 281.536 1206.01 283.072 1197.31 283.072Z" fill="#120028"/>
<path d="M1027.17 280H1023.17V284H1027.17V280ZM1027.17 182.464H1031.17V178.464H1027.17V182.464ZM975.968 182.464H971.968V186.464H975.968V182.464ZM975.968 153.024V149.024H971.968V153.024H975.968ZM1064.8 153.024H1068.8V149.024H1064.8V153.024ZM1064.8 280V284H1068.8V280H1064.8ZM1026.4 126.912L1023.74 129.896L1023.77 129.923L1023.8 129.949L1026.4 126.912ZM1026.4 93.376L1029.06 96.3597L1029.09 96.3337L1029.12 96.3072L1026.4 93.376ZM1062.24 93.376L1059.47 96.2573L1059.52 96.3095L1059.58 96.3597L1062.24 93.376ZM1062.24 126.912L1064.9 129.902L1064.9 129.896L1062.24 126.912ZM1031.17 280V182.464H1023.17V280H1031.17ZM1027.17 178.464H975.968V186.464H1027.17V178.464ZM979.968 182.464V153.024H971.968V182.464H979.968ZM975.968 157.024H1064.8V149.024H975.968V157.024ZM1060.8 153.024V280H1068.8V153.024H1060.8ZM1064.8 276H1027.17V284H1064.8V276ZM1044.32 129.056C1037.97 129.056 1032.96 127.264 1029 123.875L1023.8 129.949C1029.4 134.752 1036.34 137.056 1044.32 137.056V129.056ZM1029.06 123.928C1025.2 120.475 1023.23 116.044 1023.23 110.272H1015.23C1015.23 118.154 1018.05 124.816 1023.74 129.896L1029.06 123.928ZM1023.23 110.272C1023.23 104.296 1025.22 99.7924 1029.06 96.3597L1023.74 90.3922C1018.02 95.4929 1015.23 102.253 1015.23 110.272H1023.23ZM1029.12 96.3072C1033.08 92.6275 1038.05 90.72 1044.32 90.72V82.72C1036.25 82.72 1029.27 85.2498 1023.68 90.4448L1029.12 96.3072ZM1044.32 90.72C1050.79 90.72 1055.71 92.6441 1059.47 96.2573L1065.01 90.4947C1059.55 85.2332 1052.53 82.72 1044.32 82.72V90.72ZM1059.58 96.3597C1063.42 99.7924 1065.41 104.296 1065.41 110.272H1073.41C1073.41 102.253 1070.62 95.4929 1064.9 90.3922L1059.58 96.3597ZM1065.41 110.272C1065.41 116.044 1063.44 120.475 1059.58 123.928L1064.9 129.896C1070.59 124.816 1073.41 118.154 1073.41 110.272H1065.41ZM1059.58 123.922C1055.84 127.248 1050.88 129.056 1044.32 129.056V137.056C1052.44 137.056 1059.42 134.768 1064.9 129.902L1059.58 123.922ZM1161.21 275.392L1159.42 278.97L1159.46 278.987L1159.49 279.003L1161.21 275.392ZM1135.87 252.608L1132.45 254.691L1132.47 254.726L1132.5 254.759L1135.87 252.608ZM1136.89 180.672L1140.18 182.943L1140.19 182.93L1140.2 182.917L1136.89 180.672ZM1163.77 157.888L1165.45 161.52L1165.46 161.514L1165.47 161.509L1163.77 157.888ZM1227.52 154.816L1226.04 158.535L1226.08 158.549L1226.11 158.561L1227.52 154.816ZM1247.74 167.104L1250.94 169.498L1253.05 166.678L1250.52 164.23L1247.74 167.104ZM1230.33 190.4L1228.06 193.693L1231.23 195.879L1233.54 192.794L1230.33 190.4ZM1216 182.976L1214.56 186.709L1214.64 186.742L1214.73 186.771L1216 182.976ZM1182.97 184.768L1184.8 188.324L1182.97 184.768ZM1169.92 197.312L1173.4 199.273L1169.92 197.312ZM1169.66 235.712L1166.13 237.589L1166.15 237.631L1166.17 237.673L1169.66 235.712ZM1182.2 248.256L1180.28 251.763L1180.3 251.776L1180.33 251.788L1182.2 248.256ZM1219.07 249.024L1217.51 245.342L1217.49 245.35L1217.46 245.359L1219.07 249.024ZM1234.43 240.576L1237.81 238.433L1235.56 234.89L1232.13 237.305L1234.43 240.576ZM1249.53 264.384L1252.11 267.445L1254.78 265.194L1252.91 262.241L1249.53 264.384ZM1224.19 278.464L1222.94 274.662L1222.93 274.666L1222.92 274.669L1224.19 278.464ZM1197.31 279.072C1184.52 279.072 1173.09 276.616 1162.93 271.781L1159.49 279.003C1170.84 284.408 1183.47 287.072 1197.31 287.072V279.072ZM1163 271.814C1153.06 266.845 1145.16 259.741 1139.24 250.457L1132.5 254.759C1139.2 265.273 1148.2 273.358 1159.42 278.97L1163 271.814ZM1139.28 250.525C1133.59 241.191 1130.65 229.91 1130.65 216.512H1122.65C1122.65 231.103 1125.86 243.886 1132.45 254.691L1139.28 250.525ZM1130.65 216.512C1130.65 203.192 1133.89 192.07 1140.18 182.943L1133.6 178.401C1126.24 189.072 1122.65 201.843 1122.65 216.512H1130.65ZM1140.2 182.917C1146.62 173.453 1155.01 166.336 1165.45 161.52L1162.1 154.256C1150.34 159.68 1140.82 167.753 1133.58 178.427L1140.2 182.917ZM1165.47 161.509C1176.18 156.478 1187.72 153.952 1200.12 153.952V145.952C1186.59 145.952 1173.89 148.716 1162.07 154.267L1165.47 161.509ZM1200.12 153.952C1209.76 153.952 1218.38 155.503 1226.04 158.535L1228.99 151.097C1220.27 147.644 1210.63 145.952 1200.12 145.952V153.952ZM1226.11 158.561C1233.88 161.476 1240.13 165.305 1244.96 169.978L1250.52 164.23C1244.77 158.663 1237.53 154.3 1228.92 151.071L1226.11 158.561ZM1244.54 164.71L1227.13 188.006L1233.54 192.794L1250.94 169.498L1244.54 164.71ZM1232.6 187.107C1227.41 183.529 1222.3 180.861 1217.26 179.181L1214.73 186.771C1218.91 188.163 1223.35 190.445 1228.06 193.693L1232.6 187.107ZM1217.43 179.243C1212.53 177.359 1207.44 176.416 1202.17 176.416V184.416C1206.46 184.416 1210.58 185.18 1214.56 186.709L1217.43 179.243ZM1202.17 176.416C1194.45 176.416 1187.41 177.983 1181.14 181.212L1184.8 188.324C1189.8 185.751 1195.56 184.416 1202.17 184.416V176.416ZM1181.14 181.212C1174.82 184.468 1169.89 189.2 1166.43 195.351L1173.4 199.273C1176.09 194.502 1179.86 190.871 1184.8 188.324L1181.14 181.212ZM1166.43 195.351C1162.97 201.506 1161.31 208.605 1161.31 216.512H1169.31C1169.31 209.742 1170.72 204.04 1173.4 199.273L1166.43 195.351ZM1161.31 216.512C1161.31 224.383 1162.87 231.451 1166.13 237.589L1173.19 233.835C1170.65 229.051 1169.31 223.318 1169.31 216.512H1161.31ZM1166.17 237.673C1169.6 243.759 1174.31 248.488 1180.28 251.763L1184.13 244.749C1179.52 242.221 1175.87 238.587 1173.15 233.751L1166.17 237.673ZM1180.33 251.788C1186.44 255.035 1193.33 256.608 1200.89 256.608V248.608C1194.46 248.608 1188.89 247.279 1184.08 244.724L1180.33 251.788ZM1200.89 256.608C1208.04 256.608 1214.65 255.324 1220.67 252.689L1217.46 245.359C1212.56 247.503 1207.06 248.608 1200.89 248.608V256.608ZM1220.63 252.706C1226.5 250.216 1231.87 247.266 1236.73 243.847L1232.13 237.305C1227.77 240.371 1222.9 243.053 1217.51 245.342L1220.63 252.706ZM1231.05 242.719L1246.15 266.527L1252.91 262.241L1237.81 238.433L1231.05 242.719ZM1246.96 261.323C1239.84 267.305 1231.85 271.749 1222.94 274.662L1225.43 282.266C1235.3 279.035 1244.2 274.092 1252.11 267.445L1246.96 261.323ZM1222.92 274.669C1214.07 277.621 1205.54 279.072 1197.31 279.072V287.072C1206.49 287.072 1215.88 285.451 1225.45 282.259L1222.92 274.669Z" fill="white"/>
<path d="M1501.36 282.72V272.992H1624.24V282.72H1501.36Z" fill="white"/>
<path d="M928 279.544H748.544V241.912H852.224V240.888L801.024 194.296V153.08L896 241.912H928V279.544ZM928 189.944L870.4 226.808L847.104 205.304L928 149.24V189.944Z" fill="#120028"/>
<path d="M928 279.544V283.544H932V279.544H928ZM748.544 279.544H744.544V283.544H748.544V279.544ZM748.544 241.912V237.912H744.544V241.912H748.544ZM852.224 241.912V245.912H856.224V241.912H852.224ZM852.224 240.888H856.224V239.12L854.916 237.93L852.224 240.888ZM801.024 194.296H797.024V196.064L798.332 197.254L801.024 194.296ZM801.024 153.08L803.756 150.159L797.024 143.862V153.08H801.024ZM896 241.912L893.268 244.833L894.421 245.912H896V241.912ZM928 241.912H932V237.912H928V241.912ZM928 189.944L930.156 193.313L932 192.133V189.944H928ZM870.4 226.808L867.687 229.747L869.956 231.841L872.556 230.177L870.4 226.808ZM847.104 205.304L844.826 202.016L840.724 204.859L844.391 208.243L847.104 205.304ZM928 149.24H932V141.601L925.722 145.952L928 149.24ZM928 275.544H748.544V283.544H928V275.544ZM752.544 279.544V241.912H744.544V279.544H752.544ZM748.544 245.912H852.224V237.912H748.544V245.912ZM856.224 241.912V240.888H848.224V241.912H856.224ZM854.916 237.93L803.716 191.338L798.332 197.254L849.532 243.846L854.916 237.93ZM805.024 194.296V153.08H797.024V194.296H805.024ZM798.292 156.001L893.268 244.833L898.732 238.991L803.756 150.159L798.292 156.001ZM896 245.912H928V237.912H896V245.912ZM924 241.912V279.544H932V241.912H924ZM925.844 186.575L868.244 223.439L872.556 230.177L930.156 193.313L925.844 186.575ZM873.113 223.869L849.817 202.365L844.391 208.243L867.687 229.747L873.113 223.869ZM849.382 208.592L930.278 152.528L925.722 145.952L844.826 202.016L849.382 208.592ZM924 149.24V189.944H932V149.24H924Z" fill="white"/>
<path d="M1473 278.544H1293.54V240.912H1397.22V239.888L1346.02 193.296V152.08L1441 240.912H1473V278.544ZM1473 188.944L1415.4 225.808L1392.1 204.304L1473 148.24V188.944Z" fill="#120028"/>
<path d="M1473 278.544V282.544H1477V278.544H1473ZM1293.54 278.544H1289.54V282.544H1293.54V278.544ZM1293.54 240.912V236.912H1289.54V240.912H1293.54ZM1397.22 240.912V244.912H1401.22V240.912H1397.22ZM1397.22 239.888H1401.22V238.12L1399.92 236.93L1397.22 239.888ZM1346.02 193.296H1342.02V195.064L1343.33 196.254L1346.02 193.296ZM1346.02 152.08L1348.76 149.159L1342.02 142.862V152.08H1346.02ZM1441 240.912L1438.27 243.833L1439.42 244.912H1441V240.912ZM1473 240.912H1477V236.912H1473V240.912ZM1473 188.944L1475.16 192.313L1477 191.133V188.944H1473ZM1415.4 225.808L1412.69 228.747L1414.96 230.841L1417.56 229.177L1415.4 225.808ZM1392.1 204.304L1389.83 201.016L1385.72 203.859L1389.39 207.243L1392.1 204.304ZM1473 148.24H1477V140.601L1470.72 144.952L1473 148.24ZM1473 274.544H1293.54V282.544H1473V274.544ZM1297.54 278.544V240.912H1289.54V278.544H1297.54ZM1293.54 244.912H1397.22V236.912H1293.54V244.912ZM1401.22 240.912V239.888H1393.22V240.912H1401.22ZM1399.92 236.93L1348.72 190.338L1343.33 196.254L1394.53 242.846L1399.92 236.93ZM1350.02 193.296V152.08H1342.02V193.296H1350.02ZM1343.29 155.001L1438.27 243.833L1443.73 237.991L1348.76 149.159L1343.29 155.001ZM1441 244.912H1473V236.912H1441V244.912ZM1469 240.912V278.544H1477V240.912H1469ZM1470.84 185.575L1413.24 222.439L1417.56 229.177L1475.16 192.313L1470.84 185.575ZM1418.11 222.869L1394.82 201.365L1389.39 207.243L1412.69 228.747L1418.11 222.869ZM1394.38 207.592L1475.28 151.528L1470.72 144.952L1389.83 201.016L1394.38 207.592ZM1469 148.24V188.944H1477V148.24H1469Z" fill="white"/>
</svg>
