<svg width="556" height="256" viewBox="0 0 556 256" fill="none" xmlns="http://www.w3.org/2000/svg">
<path d="M555.371 254.985H240.821V182.616H422.551V180.647L332.807 91.0462V11.7846L499.282 182.616H555.371V254.985ZM555.371 82.6769L454.41 153.569L413.576 112.215L555.371 4.40002V82.6769Z" fill="#120028"/>
<path d="M123.846 256C100.513 256 79.4229 251.077 60.5768 241.231C42.0298 231.057 27.2222 216.452 16.1538 197.415C5.3846 178.052 0 154.912 0 128C0 101.087 5.98289 78.1128 17.9486 59.0769C29.9145 39.7128 45.6195 25.1077 65.064 15.2615C84.8076 5.08717 106.047 0 128.782 0C146.432 0 162.436 3.11795 176.794 9.35384C191.153 15.2615 202.97 23.1385 212.244 32.9846L181.73 77.7846C173.056 71.2205 164.68 66.4616 156.602 63.5078C148.825 60.2257 140.748 58.5846 132.371 58.5846C119.807 58.5846 108.59 61.3743 98.7178 66.9538C88.8459 72.5333 81.2178 80.5743 75.8332 91.0769C70.4485 101.579 67.7563 113.887 67.7563 128C67.7563 142.113 70.2991 154.421 75.3845 164.923C80.769 175.426 88.0981 183.467 97.3715 189.046C106.944 194.626 117.863 197.415 130.128 197.415C141.794 197.415 152.414 195.117 161.986 190.523C171.858 185.928 180.833 180.512 188.91 174.277L215.384 220.062C202.222 232.205 187.414 241.231 170.961 247.138C154.808 253.046 139.102 256 123.846 256Z" fill="#120028"/>
</svg>
