<svg width="1219" height="512" viewBox="0 0 1219 512" fill="none" xmlns="http://www.w3.org/2000/svg">
<path d="M1218.64 509.97H528.431V365.232H927.2V361.294L730.276 182.092V23.5693L1095.57 365.232H1218.64V509.97ZM1218.64 165.354L997.107 307.139L907.507 224.431L1218.64 8.80005V165.354Z" fill="white"/>
<path d="M271.754 512C220.554 512 174.277 502.155 132.923 482.462C92.2255 462.114 59.7334 432.903 35.4462 394.831C11.8154 356.103 0 309.824 0 256C0 202.174 13.1282 156.226 39.3845 118.154C65.641 79.4255 100.102 50.2155 142.769 30.5231C186.092 10.1743 232.697 0 282.585 0C321.314 0 356.431 6.2359 387.938 18.7077C419.445 30.5231 445.376 46.2769 465.724 65.9693L398.769 155.569C379.734 142.441 361.355 132.923 343.631 127.016C326.565 120.451 308.841 117.169 290.461 117.169C262.892 117.169 238.277 122.749 216.615 133.908C194.954 145.067 178.215 161.149 166.4 182.154C154.584 203.159 148.677 227.774 148.677 256C148.677 284.226 154.257 308.841 165.415 329.845C177.231 350.852 193.313 366.934 213.661 378.093C234.667 389.252 258.626 394.831 285.539 394.831C311.138 394.831 334.441 390.235 355.445 381.045C377.107 371.855 396.8 361.024 414.524 348.555L472.614 440.124C443.734 464.41 411.241 482.462 375.138 494.276C339.693 506.093 305.231 512 271.754 512Z" fill="white"/>
</svg>
