<svg width="512" height="512" viewBox="0 0 512 512" fill="none" xmlns="http://www.w3.org/2000/svg">
<rect width="512" height="512" rx="256" fill="#120028"/>
<path d="M464.529 342.306H228.616V292.835H364.914V291.489L297.606 230.239V176.056L422.462 292.835H464.529V342.306ZM464.529 224.517L388.808 272.979L358.183 244.71L464.529 171.008V224.517Z" fill="white"/>
<path d="M140.885 343C123.385 343 107.567 339.635 93.4327 332.904C79.5224 325.949 68.4167 315.965 60.1154 302.952C52.0385 289.715 48 273.897 48 255.5C48 237.103 52.4872 221.397 61.4615 208.385C70.4359 195.147 82.2147 185.163 96.7981 178.433C111.606 171.478 127.535 168 144.587 168C157.824 168 169.827 170.131 180.596 174.394C191.365 178.433 200.228 183.817 207.183 190.548L184.298 221.173C177.792 216.686 171.51 213.433 165.452 211.413C159.619 209.17 153.561 208.048 147.279 208.048C137.856 208.048 129.442 209.955 122.038 213.769C114.635 217.583 108.913 223.08 104.875 230.26C100.837 237.439 98.8173 245.853 98.8173 255.5C98.8173 265.147 100.724 273.561 104.538 280.74C108.577 287.92 114.074 293.417 121.029 297.231C128.208 301.045 136.397 302.952 145.596 302.952C154.346 302.952 162.311 301.381 169.49 298.24C176.894 295.099 183.625 291.397 189.683 287.135L209.538 318.433C199.667 326.734 188.561 332.904 176.221 336.942C164.106 340.981 152.327 343 140.885 343Z" fill="white"/>
</svg>
